<svg width="36" height="36" viewBox="0 0 36 36" fill="none" xmlns="http://www.w3.org/2000/svg">
<circle cx="18" cy="18" r="18" fill="#4A4A4A"/>
<path d="M17.928 9.57146C20.7405 9.57146 21.0735 9.58215 22.1845 9.63277C23.2116 9.67946 23.769 9.85102 24.1403 9.99558C24.6319 10.1868 24.9829 10.4146 25.3513 10.7836C25.7198 11.1521 25.9481 11.5031 26.1394 11.9947C26.284 12.366 26.455 12.9234 26.5022 13.9511C26.5528 15.062 26.5635 15.395 26.5635 18.2075C26.5635 21.02 26.5528 21.353 26.5022 22.464C26.455 23.4911 26.284 24.0485 26.1394 24.4198C25.9481 24.9114 25.7203 25.2624 25.3513 25.6308C24.9829 25.9993 24.6319 26.2276 24.1403 26.4189C23.769 26.5635 23.211 26.735 22.1845 26.7817C21.0735 26.8323 20.7411 26.843 17.928 26.843C15.115 26.843 14.7825 26.8323 13.6716 26.7817C12.6445 26.735 12.087 26.5635 11.7158 26.4189C11.2241 26.2276 10.8731 25.9993 10.5047 25.6308C10.1363 25.2624 9.90789 24.9114 9.71664 24.4198C9.57264 24.0485 9.40107 23.4911 9.35382 22.464C9.3032 21.3536 9.29251 21.02 9.29251 18.2075C9.29251 15.395 9.3032 15.062 9.35382 13.9511C9.40107 12.924 9.57264 12.3665 9.71664 11.9947C9.90789 11.5031 10.1363 11.1526 10.5047 10.7836C10.8731 10.4152 11.2241 10.1868 11.7158 9.99558C12.087 9.85102 12.6445 9.67946 13.6716 9.63277C14.7825 9.58215 15.1161 9.57146 17.928 9.57146ZM17.928 7.67358C15.0671 7.67358 14.7088 7.68596 13.585 7.73715C12.4639 7.78833 11.6983 7.96665 11.0284 8.22652C10.3354 8.49596 9.74814 8.85596 9.16257 9.44152C8.57701 10.0271 8.21701 10.6149 7.94757 11.3073C7.68714 11.9773 7.50882 12.7428 7.45764 13.8639C7.40645 14.9878 7.39407 15.3461 7.39407 18.207C7.39407 21.0678 7.40589 21.4261 7.45764 22.55C7.50882 23.6711 7.68657 24.4366 7.94757 25.1066C8.21645 25.799 8.57645 26.3868 9.16257 26.9724C9.74814 27.558 10.3354 27.918 11.0284 28.1874C11.6983 28.4478 12.4639 28.6256 13.585 28.6768C14.7083 28.728 15.0671 28.7398 17.928 28.7398C20.7889 28.7398 21.1472 28.728 22.2711 28.6768C23.3921 28.6256 24.1577 28.4473 24.8276 28.1874C25.5206 27.918 26.1079 27.558 26.6935 26.9724C27.279 26.3868 27.639 25.799 27.9085 25.1066C28.1689 24.4366 28.3466 23.6711 28.3984 22.55C28.4496 21.4267 28.4614 21.0678 28.4614 18.207C28.4614 15.3461 28.4496 14.9878 28.3984 13.8639C28.3472 12.7428 28.1689 11.9773 27.9085 11.3073C27.639 10.6149 27.279 10.0271 26.6935 9.44152C26.1079 8.85596 25.5206 8.49596 24.8276 8.22652C24.1577 7.96608 23.3921 7.78833 22.2711 7.73715C21.1478 7.6854 20.7889 7.67358 17.928 7.67358Z" fill="white"/>
<path d="M17.928 12.7979C14.9406 12.7979 12.519 15.2194 12.519 18.2068C12.519 21.1943 14.9411 23.6158 17.928 23.6158C20.9155 23.6158 23.337 21.1943 23.337 18.2068C23.337 15.2194 20.9155 12.7979 17.928 12.7979ZM17.928 21.718C15.9885 21.718 14.4169 20.1458 14.4169 18.2068C14.4169 16.2673 15.9885 14.6957 17.928 14.6957C19.867 14.6957 21.4391 16.2673 21.4391 18.2068C21.4391 20.1458 19.8675 21.718 17.928 21.718Z" fill="white"/>
<path d="M24.8152 12.5843C24.8152 13.2823 24.2494 13.8482 23.5513 13.8482C22.8533 13.8482 22.2874 13.2823 22.2874 12.5843C22.2874 11.8862 22.8533 11.3203 23.5513 11.3203C24.2494 11.3203 24.8152 11.8862 24.8152 12.5843Z" fill="white"/>
</svg>
