<?xml version="1.0" encoding="UTF-8"?>
<svg width="40px" height="40px" viewBox="0 0 40 40" version="1.1" xmlns="http://www.w3.org/2000/svg" xmlns:xlink="http://www.w3.org/1999/xlink">
    <!-- Generator: Sketch 52.2 (67145) - http://www.bohemiancoding.com/sketch -->
    <title>linkedin</title>
    <desc>Created with Sketch.</desc>
    <g id="desktop" stroke="none" stroke-width="1" fill="none" fill-rule="evenodd">
        <g id="tripona-desk" transform="translate(-635.000000, -4351.000000)" fill="#4A4A4A">
            <g id="footer" transform="translate(0.000000, 2423.000000)">
                <g id="final">
                    <g id="linkedin" transform="translate(635.000000, 1928.000000)">
                        <path d="M30,29.98125 L25.85625,29.98125 L25.85625,23.49625 C25.85625,21.95 25.82875,19.96125 23.7025,19.96125 C21.54625,19.96125 21.2175,21.64625 21.2175,23.38625 L21.2175,29.98125 L17.0775,29.98125 L17.0775,16.64625 L21.05,16.64625 L21.05,18.47 L21.1075,18.47 C21.66,17.42125 23.0125,16.315 25.02875,16.315 C29.225,16.315 30,19.07625 30,22.6675 L30,29.98125 Z M12.405,14.825 C11.07375,14.825 10,13.7475 10,12.42125 C10,11.095 11.07375,10.0175 12.405,10.0175 C13.73,10.0175 14.80625,11.095 14.80625,12.42125 C14.80625,13.7475 13.73,14.825 12.405,14.825 L12.405,14.825 Z M14.4775,29.98125 L10.32875,29.98125 L10.32875,16.64625 L14.4775,16.64625 L14.4775,29.98125 Z M20,0 C8.95375,0 0,8.95375 0,20 C0,31.045 8.95375,40 20,40 C31.04625,40 40,31.045 40,20 C40,8.95375 31.04625,0 20,0 L20,0 Z" id="Fill-209"/>
                    </g>
                </g>
            </g>
        </g>
    </g>
</svg>