<?xml version="1.0" encoding="UTF-8"?>
<svg width="40px" height="40px" viewBox="0 0 40 40" version="1.1" xmlns="http://www.w3.org/2000/svg" xmlns:xlink="http://www.w3.org/1999/xlink">
    <!-- Generator: Sketch 52.2 (67145) - http://www.bohemiancoding.com/sketch -->
    <title>twitter</title>
    <desc>Created with Sketch.</desc>
    <g id="desktop" stroke="none" stroke-width="1" fill="none" fill-rule="evenodd">
        <g id="tripona-desk" transform="translate(-747.000000, -4351.000000)" fill="#4A4A4A">
            <g id="footer" transform="translate(0.000000, 2423.000000)">
                <g id="final">
                    <g id="twitter" transform="translate(747.000000, 1928.000000)">
                        <path d="M27.9525,15.92125 C27.96,16.0975 27.965,16.27375 27.965,16.4525 C27.965,21.87375 23.8375,28.12625 16.29,28.12625 C13.9725,28.12625 11.81625,27.4475 10,26.28375 C10.32125,26.32125 10.6475,26.34 10.97875,26.34 C12.90125,26.34 14.67,25.685 16.075,24.58375 C14.27875,24.55125 12.76375,23.365 12.24125,21.735 C12.4925,21.7825 12.74875,21.8075 13.01375,21.8075 C13.3875,21.8075 13.75,21.7575 14.095,21.66375 C12.2175,21.2875 10.80375,19.62875 10.80375,17.64125 L10.80375,17.58875 C11.35625,17.89625 11.99,18.08125 12.6625,18.1025 C11.56125,17.36625 10.83625,16.11 10.83625,14.6875 C10.83625,13.935 11.03875,13.23 11.3925,12.62375 C13.41625,15.10625 16.44,16.74 19.85,16.91125 C19.78,16.61125 19.74375,16.2975 19.74375,15.97625 C19.74375,13.71 21.58125,11.8725 23.84625,11.8725 C25.0275,11.8725 26.09375,12.37125 26.84125,13.16875 C27.77625,12.985 28.655,12.64375 29.4475,12.17375 C29.14125,13.13125 28.49,13.935 27.64375,14.44375 C28.47375,14.34375 29.26375,14.12375 30,13.7975 C29.45,14.62 28.75375,15.3425 27.9525,15.92125 M20,0 C8.95375,0 0,8.95375 0,20 C0,31.045 8.95375,40 20,40 C31.04625,40 40,31.045 40,20 C40,8.95375 31.04625,0 20,0" id="Fill-184"/>
                    </g>
                </g>
            </g>
        </g>
    </g>
</svg>