<?xml version="1.0" encoding="UTF-8"?>
<svg width="40px" height="40px" viewBox="0 0 40 40" version="1.1" xmlns="http://www.w3.org/2000/svg" xmlns:xlink="http://www.w3.org/1999/xlink">
    <!-- Generator: Sketch 52.2 (67145) - http://www.bohemiancoding.com/sketch -->
    <title>youtube</title>
    <desc>Created with Sketch.</desc>
    <g id="desktop" stroke="none" stroke-width="1" fill="none" fill-rule="evenodd">
        <g id="tripona-desk" transform="translate(-691.000000, -4351.000000)" fill="#4A4A4A">
            <g id="footer" transform="translate(0.000000, 2423.000000)">
                <g id="final">
                    <g id="youtube" transform="translate(691.000000, 1928.000000)">
                        <path d="M30,20.755 C30,22.37375 29.8,23.9925 29.8,23.9925 C29.8,23.9925 29.605,25.37 29.005,25.9775 C28.245,26.77375 27.3925,26.7775 27.00125,26.82375 C24.2025,27.02625 20,27.0325 20,27.0325 C20,27.0325 14.8,26.985 13.2,26.8325 C12.755,26.74875 11.755,26.77375 10.995,25.9775 C10.395,25.37 10.2,23.9925 10.2,23.9925 C10.2,23.9925 10,22.37375 10,20.755 L10,19.2375 C10,17.61875 10.2,16.00125 10.2,16.00125 C10.2,16.00125 10.395,14.6225 10.995,14.015 C11.755,13.21875 12.6075,13.215 12.99875,13.16875 C15.7975,12.96625 19.99625,12.96625 19.99625,12.96625 L20.00375,12.96625 C20.00375,12.96625 24.2025,12.96625 27.00125,13.16875 C27.3925,13.215 28.245,13.21875 29.005,14.015 C29.605,14.6225 29.8,16.00125 29.8,16.00125 C29.8,16.00125 30,17.61875 30,19.2375 L30,20.755 Z M20,0 C8.95375,0 0,8.95375 0,20 C0,31.045 8.95375,40 20,40 C31.04625,40 40,31.045 40,20 C40,8.95375 31.04625,0 20,0 L20,0 Z" id="Fill-207"/>
                        <polygon id="Fill-208" points="17.93525 22.59375 23.339 19.79375 17.934 16.97375"/>
                    </g>
                </g>
            </g>
        </g>
    </g>
</svg>