<svg width="32" height="32" viewBox="0 0 32 32" fill="none" xmlns="http://www.w3.org/2000/svg">
<path d="M16 1.77778C23.8459 1.77778 30.2222 8.15407 30.2222 16C30.2222 23.8459 23.8459 30.2222 16 30.2222C8.15407 30.2222 1.77778 23.8459 1.77778 16C1.77778 8.15407 8.15407 1.77778 16 1.77778ZM16 0C7.15852 0 0 7.17037 0 16C0 24.8296 7.17037 32 16 32C24.8296 32 32 24.8296 32 16C32 7.17037 24.8415 0 16 0Z" fill="#204986"/>
<path fill-rule="evenodd" clip-rule="evenodd" d="M14.874 22.6964C18.951 25.1023 20.4562 24.6164 21.7006 24.2016C22.9451 23.7868 23.7984 22.3527 24.0591 21.8312C24.3199 21.3098 24.0592 20.5631 23.9643 20.0416C23.8814 19.5201 23.514 19.4016 23.514 19.4016C23.514 19.4016 20.6221 18.7024 19.9584 18.5601C19.3066 18.4179 18.5836 19.5675 18.2043 20.2075C17.8251 20.8594 17.3154 20.4327 17.3154 20.4327C17.3154 20.4327 16.1184 20.1246 14.2814 18.2401C12.4325 16.3675 12.0414 15.3246 12.0414 15.3246C12.0414 15.3246 11.5673 14.8505 12.0651 14.3053C12.5629 13.772 13.428 12.7527 13.1673 12.0653C12.9066 11.3779 11.7214 8.36753 11.7214 8.36753C11.7214 8.36753 11.5436 7.98827 11.0695 8.00013C10.5955 8.01198 9.88435 7.86976 9.48138 8.26087C9.07842 8.65198 7.98803 9.87271 7.86951 11.3068C7.75099 12.7409 7.63246 14.4831 10.5599 18.4535C10.5599 18.4535 11.1288 19.3898 12.3258 20.5631C13.511 21.7364 14.874 22.6964 14.874 22.6964Z" stroke="#017CEB" stroke-width="1.5" stroke-miterlimit="10" stroke-linecap="round" stroke-linejoin="round"/>
</svg>
