<svg width="32" height="32" viewBox="0 0 32 32" fill="none" xmlns="http://www.w3.org/2000/svg">
<path d="M16.0119 1.77844C23.8578 1.77844 30.2341 8.14525 30.2341 15.9822C30.2341 23.8192 23.8578 30.186 16.0119 30.186C13.4637 30.186 10.963 29.5102 8.78222 28.2179C8.50963 28.0519 8.18962 27.9689 7.88147 27.9689C7.71554 27.9689 7.53779 27.9926 7.38371 28.04C5.48742 28.5973 3.92296 29.0478 2.70222 29.4035C3.04592 28.3246 3.4963 26.8663 4.11259 24.91C4.26667 24.412 4.19555 23.8785 3.92296 23.4398C2.53629 21.199 1.80147 18.6262 1.80147 15.9822C1.80147 8.14525 8.17778 1.77844 16.0119 1.77844ZM16.0119 0C7.17038 0 0.0118634 7.16118 0.0118634 15.9822C0.0118634 19.0648 0.888875 21.9459 2.39406 24.3764C0.189617 31.419 0 32 0 32C0 32 2.69035 31.2649 7.86961 29.7473C10.2518 31.1582 13.037 31.9644 16 31.9644C24.8415 31.9644 32 24.8033 32 15.9822C32.0118 7.14933 24.8533 0 16.0119 0Z" fill="#204986"/>
</svg>
