<svg width="34" height="33" viewBox="0 0 34 33" fill="none" xmlns="http://www.w3.org/2000/svg">
<path d="M16.8997 6.51991C17.3514 6.51991 17.6903 6.68184 17.8409 6.82903L27.5036 15.7342C27.993 16.1905 28.2816 16.8676 28.2816 17.6036V30.2034C28.2816 30.5272 28.0557 30.7921 27.7797 30.7921H23.2244C22.8981 30.7921 22.622 30.483 22.622 30.0856V23.035C22.622 21.2245 21.3671 19.7526 19.8236 19.7526H14.164C12.6204 19.7526 11.3656 21.2245 11.3656 23.035V30.0856C11.3656 30.4683 11.102 30.7921 10.7632 30.7921H6.18281C5.90673 30.7921 5.68085 30.5272 5.68085 30.2034V17.5889C5.68085 16.8529 5.95691 16.1758 6.44633 15.7195L15.9836 6.8143C16.1969 6.62294 16.5358 6.51991 16.8997 6.51991ZM16.8997 4.31201C16.1467 4.31201 15.3813 4.56224 14.8291 5.09214L5.30436 13.9973C4.37573 14.8658 3.8236 16.1905 3.83615 17.5889V30.2034C3.83615 31.7489 4.90281 33 6.22045 33H10.8008C12.1687 33 13.2856 31.7047 13.2856 30.0856V23.035C13.2856 22.4462 13.6997 21.9605 14.2016 21.9605H19.8612C20.3632 21.9605 20.7773 22.4462 20.7773 23.035V30.0856C20.7773 31.69 21.8816 33 23.262 33H27.8173C29.135 33 30.2016 31.7489 30.2016 30.2034V17.6036C30.2016 16.1905 29.6495 14.8658 28.7083 13.9973L19.0456 5.09214C18.4557 4.57696 17.6777 4.31201 16.8997 4.31201Z" fill="#204986"/>
<path d="M33 14.2328L19.0455 1.83915C17.8784 0.691039 16.1467 0.749916 14.8667 1.83915L1 14.2328" stroke="#017CEB" stroke-width="1.5" stroke-miterlimit="10" stroke-linecap="round" stroke-linejoin="round"/>
</svg>
