<svg width="16" height="16" viewBox="0 0 16 16" fill="none" xmlns="http://www.w3.org/2000/svg">
<path fill-rule="evenodd" clip-rule="evenodd" d="M7.33333 3.33333C5.12419 3.33333 3.33333 5.12419 3.33333 7.33333C3.33333 9.54247 5.12419 11.3333 7.33333 11.3333C9.54247 11.3333 11.3333 9.54247 11.3333 7.33333C11.3333 5.12419 9.54247 3.33333 7.33333 3.33333ZM2 7.33333C2 4.38781 4.38781 2 7.33333 2C10.2789 2 12.6667 4.38781 12.6667 7.33333C12.6667 10.2789 10.2789 12.6667 7.33333 12.6667C4.38781 12.6667 2 10.2789 2 7.33333Z" fill="#5A646E"/>
<path fill-rule="evenodd" clip-rule="evenodd" d="M10.1953 10.1953C10.4556 9.93491 10.8777 9.93491 11.1381 10.1953L13.8047 12.8619C14.0651 13.1223 14.0651 13.5444 13.8047 13.8047C13.5444 14.0651 13.1223 14.0651 12.8619 13.8047L10.1953 11.1381C9.93491 10.8777 9.93491 10.4556 10.1953 10.1953Z" fill="#5A646E"/>
</svg>
