<svg width="20" height="19" viewBox="0 0 20 19" fill="none" xmlns="http://www.w3.org/2000/svg">
<path d="M13.1126 18.4992H6.88916V12.5593C6.88916 11.5108 7.74229 10.6577 8.79076 10.6577H11.211C12.2594 10.6577 13.1126 11.5108 13.1126 12.5593V18.4992ZM8.0984 17.2891H11.9016V12.5593C11.9016 12.1781 11.5913 11.8678 11.2101 11.8678H8.78989C8.40871 11.8678 8.0984 12.1781 8.0984 12.5593V17.2891Z" fill="#00AEEF"/>
<path d="M16.2943 18.4991H3.70658C2.56303 18.4991 1.63297 17.569 1.63297 16.4255V10.9299C1.63297 10.6593 1.48257 10.4043 1.23018 10.2479C0.666616 9.89781 0.302719 9.28757 0.255179 8.61424C0.208503 7.95127 0.479049 7.32374 0.996802 6.8907L8.67148 0.482314C9.44162 -0.160771 10.5592 -0.160771 11.3294 0.482314L19.0032 6.8907C19.521 7.32374 19.7915 7.95127 19.7448 8.61424C19.6973 9.28757 19.3334 9.89781 18.7698 10.2479C18.5174 10.4043 18.367 10.6593 18.367 10.9299V16.4255C18.3679 17.569 17.4378 18.4991 16.2943 18.4991ZM10.0009 1.21011C9.80465 1.21011 9.60758 1.27666 9.44767 1.41064L1.77386 7.81989C1.47739 8.06709 1.45232 8.37049 1.46356 8.52953C1.48344 8.81217 1.63902 9.07667 1.86981 9.21929C2.48005 9.59788 2.84394 10.2375 2.84394 10.9299V16.4255C2.84394 16.9017 3.23118 17.289 3.70744 17.289H16.2952C16.7714 17.289 17.1586 16.9017 17.1586 16.4255V10.9299C17.1586 10.2375 17.5225 9.59874 18.1328 9.21929C18.3636 9.0758 18.5192 8.81131 18.539 8.52866C18.5503 8.36962 18.5243 8.06623 18.2287 7.81902L10.5541 1.4115C10.3933 1.27753 10.1971 1.21011 10.0009 1.21011Z" fill="#5A646E"/>
</svg>
