<svg width="24" height="24" viewBox="0 0 24 24" fill="none" xmlns="http://www.w3.org/2000/svg">
<path d="M19 11.7368V7.26316C19 5.60207 18.2625 4.00901 16.9497 2.83444C15.637 1.65987 13.8565 1 12 1C10.1435 1 8.36301 1.65987 7.05025 2.83444C5.7375 4.00901 5 5.60207 5 7.26316V11.7368C4.97026 13.9469 4.27968 16.1095 3 18H21C19.7203 16.1095 19.0297 13.9469 19 11.7368Z" stroke="white" stroke-width="2" stroke-miterlimit="10" stroke-linecap="round" stroke-linejoin="round"/>
<path d="M8 21C8.29412 21.8779 8.83645 22.6374 9.5526 23.1746C10.2688 23.7117 11.1236 24 12 24C12.8764 24 13.7312 23.7117 14.4474 23.1746C15.1636 22.6374 15.7059 21.8779 16 21H8Z" fill="#00AEEF"/>
</svg>
